<?xml version="1.0" standalone="no"?><!DOCTYPE svg PUBLIC "-//W3C//DTD SVG 1.1//EN" "http://www.w3.org/Graphics/SVG/1.1/DTD/svg11.dtd"><svg t="1687245957520" class="icon" viewBox="0 0 1035 1024" version="1.1" xmlns="http://www.w3.org/2000/svg" p-id="11522" xmlns:xlink="http://www.w3.org/1999/xlink" width="202.1484375" height="200"><path d="M653.28 280.16H251.52l31.04 31.04 12 12h128v397.92l40.8 40.8V323.2h30.88v469.6l40.8 40.8V323.2h30.88V864l31.04 32 7.04 7.04a3.84 3.84 0 0 0 2.56-3.52v-576h128l12-12 31.04-31.04h-124.32zM555.52 205.44H473.6a3.84 3.84 0 0 0-1.92 0H176l43.04 43.04h252.48a3.84 3.84 0 0 0 1.92 0h81.92a3.84 3.84 0 0 0 1.92 0H809.6l43.04-43.04H557.44a3.84 3.84 0 0 0-1.92 0zM555.52 130.24H473.6a3.84 3.84 0 0 0-1.92 0H101.12L144 172.8h327.52a3.84 3.84 0 0 0 1.92 0h81.92a3.84 3.84 0 0 0 1.92 0H884.8L928 129.6H557.44a3.84 3.84 0 0 0-1.92 0.64z" fill="#13227a" p-id="11523"></path></svg>